<svg xmlns="http://www.w3.org/2000/svg" viewBox="0 0 300 600" width="300" height="600">
  <defs>
    <linearGradient id="bgGrad3" x1="0%" y1="0%" x2="0%" y2="100%">
      <stop offset="0%" style="stop-color:#1A1A2E"/>
      <stop offset="100%" style="stop-color:#0F0F1A"/>
    </linearGradient>
    <linearGradient id="headerGrad3" x1="0%" y1="0%" x2="100%" y2="100%">
      <stop offset="0%" style="stop-color:#8B5CF6"/>
      <stop offset="100%" style="stop-color:#06B6D4"/>
    </linearGradient>
  </defs>
  
  <!-- Background -->
  <rect width="300" height="600" fill="url(#bgGrad3)"/>
  
  <!-- Status bar -->
  <rect x="0" y="0" width="300" height="30" fill="#0F0F1A"/>
  <text x="20" y="20" fill="white" font-family="Arial" font-size="12">21:40</text>
  <text x="260" y="20" fill="white" font-family="Arial" font-size="12">100%</text>
  
  <!-- Header -->
  <rect x="0" y="30" width="300" height="60" fill="url(#headerGrad3)"/>
  <text x="20" y="65" fill="white" font-family="Arial" font-size="16">←</text>
  <text x="115" y="68" fill="white" font-family="Arial" font-size="18" font-weight="bold">AI Chat</text>
  <text x="250" y="65" fill="white" font-family="Arial" font-size="14">⏱️</text>
  
  <!-- Credits badge -->
  <rect x="230" y="45" width="55" height="30" rx="15" fill="#8B5CF6"/>
  <text x="240" y="65" fill="white" font-family="Arial" font-size="11">⚡ 306</text>
  
  <!-- AI Chat message -->
  <rect x="20" y="120" width="230" height="150" rx="20" fill="#3D3D4D"/>
  <text x="40" y="155" fill="white" font-family="Arial" font-size="13" font-weight="500">Hello! I'm your tech device</text>
  <text x="40" y="175" fill="white" font-family="Arial" font-size="13" font-weight="500">assistant. Ask me anything</text>
  <text x="40" y="195" fill="white" font-family="Arial" font-size="13" font-weight="500">about phones, Macs, iPads, or</text>
  <text x="40" y="215" fill="white" font-family="Arial" font-size="13" font-weight="500">help choosing the right device</text>
  <text x="40" y="235" fill="white" font-family="Arial" font-size="13" font-weight="500">for you. I focus only on</text>
  <text x="40" y="255" fill="white" font-family="Arial" font-size="13" font-weight="500">technology topics!</text>
  
  <!-- Copy button -->
  <rect x="35" y="265" width="25" height="20" rx="3" fill="transparent" stroke="#666" stroke-width="1"/>
  
  <!-- Input area -->
  <rect x="20" y="520" width="200" height="50" rx="25" fill="#252542"/>
  <text x="40" y="550" fill="#666" font-family="Arial" font-size="13">Ask about devices...</text>
  
  <!-- Action buttons -->
  <circle cx="240" cy="545" r="20" fill="#3D3D4D"/>
  <text x="233" y="550" fill="white" font-family="Arial" font-size="14">🤖</text>
  
  <circle cx="270" cy="545" r="20" fill="#8B5CF6"/>
  <text x="263" y="550" fill="white" font-family="Arial" font-size="14">▶</text>
</svg>
